<svg xmlns="http://www.w3.org/2000/svg" viewBox="0 0 256 256" role="img" aria-label="Escalar token">
  <defs>
    <radialGradient id="bg" cx="50%" cy="42%" r="68%">
      <stop offset="0" stop-color="#24313a"/>
      <stop offset="0.58" stop-color="#111719"/>
      <stop offset="1" stop-color="#050606"/>
    </radialGradient>
    <linearGradient id="steel" x1="22" x2="226" y1="30" y2="224" gradientUnits="userSpaceOnUse">
      <stop offset="0" stop-color="#f1eee4"/>
      <stop offset="0.34" stop-color="#a9a39a"/>
      <stop offset="0.66" stop-color="#56514b"/>
      <stop offset="1" stop-color="#ddd6c8"/>
    </linearGradient>
    <linearGradient id="cyan" x1="70" x2="188" y1="86" y2="190" gradientUnits="userSpaceOnUse">
      <stop offset="0" stop-color="#26e4f0"/>
      <stop offset="1" stop-color="#087b86"/>
    </linearGradient>
  </defs>
  <rect width="256" height="256" rx="28" fill="url(#bg)"/>
  <path d="M33 128c0-52.5 42.5-95 95-95s95 42.5 95 95-42.5 95-95 95-95-42.5-95-95Z" fill="none" stroke="#2d1b14" stroke-width="15"/>
  <path d="M42 128c0-47.5 38.5-86 86-86s86 38.5 86 86-38.5 86-86 86-86-38.5-86-86Z" fill="none" stroke="url(#steel)" stroke-width="8"/>
  <path d="M128 63l11 34 35-7-22 28 27 24-35 2-5 35-19-30-33 14 16-31-25-25 34 5 16-49Z" fill="#0b0f10" stroke="url(#cyan)" stroke-width="8" stroke-linejoin="round"/>
  <path d="M66 57h47v18H96v21H78V75H66V57Zm77 0h47v18h-12v21h-18V75h-17V57ZM66 181h12v-21h18v21h17v18H66v-18Zm94-21h18v21h12v18h-47v-18h17v-21Z" fill="#e8dfd0"/>
  <path d="M76 76l30 30M180 76l-30 30M76 180l30-30M180 180l-30-30" stroke="#d03b20" stroke-width="8" stroke-linecap="round"/>
  <path d="M128 18v30M128 208v30M18 128h30M208 128h30" stroke="#7f776c" stroke-width="8" stroke-linecap="round"/>
</svg>
